Coordinates
version=1
nRows=17
nColumns=38
inDegrees=no

Units are S.I. units (second, meters, Newtons, ...)
If the header above contains a line with 'inDegrees', this indicates whether rotational values are in degrees (yes) or radians (no).

endheader
time	pelvis_tilt	pelvis_list	pelvis_rotation	pelvis_tx	pelvis_ty	pelvis_tz	hip_flexion_r	hip_adduction_r	hip_rotation_r	knee_angle_r	ankle_angle_r	subtalar_angle_r	mtp_angle_r	hip_flexion_l	hip_adduction_l	hip_rotation_l	knee_angle_l	ankle_angle_l	subtalar_angle_l	mtp_angle_l	lumbar_extension	lumbar_bending	lumbar_rotation	arm_flex_r	arm_add_r	arm_rot_r	elbow_flex_r	pro_sup_r	wrist_flex_r	wrist_dev_r	arm_flex_l	arm_add_l	arm_rot_l	elbow_flex_l	pro_sup_l	wrist_flex_l	wrist_dev_l
9.99	-0.463965	1.43594	-1.00497	0.707682	-0.328329	0.972193	-0.0308832	0.00601572	-0.398751	0.391049	0.171267	0	0	-0.328256	-0.124217	-0.252018	0.203203	-0.0689817	0	0	-0.646058	0.040042	-0.0513468	0.830361	-0.585213	1.17061	0.86654	0.566709	0	0	0.619108	-0.484002	0.687225	1.33858	1.2892	0	0
10	-0.459862	1.43606	-1.00565	0.707207	-0.33236	0.972467	-0.0278567	0.00706373	-0.399209	0.383664	0.169519	0	0	-0.33044	-0.126429	-0.250089	0.20528	-0.074085	0	0	-0.642512	0.0420507	-0.0536969	0.819382	-0.586738	1.16754	0.873286	0.567586	0	0	0.607985	-0.486177	0.686227	1.34034	1.29018	0	0
10.01	-0.456933	1.43649	-1.00533	0.706692	-0.336449	0.97271	-0.0244715	0.00784528	-0.400165	0.37677	0.168001	0	0	-0.332586	-0.12855	-0.247621	0.206816	-0.0793736	0	0	-0.638711	0.0438327	-0.0555806	0.80686	-0.588454	1.16131	0.880189	0.572137	0	0	0.597005	-0.488352	0.686139	1.34203	1.2918	0	0
10.02	-0.456403	1.43664	-1.00241	0.706147	-0.34059	0.972995	-0.021373	0.00890876	-0.402892	0.369723	0.165754	0	0	-0.334936	-0.131291	-0.244052	0.20812	-0.0851026	0	0	-0.635174	0.0458853	-0.0566317	0.791646	-0.590647	1.14924	0.887785	0.58868	0	0	0.587275	-0.490434	0.687237	1.34343	1.29664	0	0
10.03	-0.456	1.43539	-0.999549	0.70564	-0.344722	0.973402	-0.0196874	0.0106143	-0.405963	0.362551	0.162904	0	0	-0.338697	-0.134761	-0.240571	0.209259	-0.0909361	0	0	-0.632955	0.0489528	-0.05759	0.779297	-0.592805	1.14448	0.895633	0.587447	0	0	0.577501	-0.493282	0.687791	1.34562	1.29664	0	0
10.04	-0.454743	1.43365	-0.998025	0.705141	-0.348829	0.973844	-0.0184712	0.0126685	-0.406947	0.355471	0.159026	0	0	-0.343244	-0.138347	-0.236727	0.210184	-0.0967266	0	0	-0.631279	0.052256	-0.0586755	0.767915	-0.594077	1.14089	0.902441	0.59111	0	0	0.567326	-0.496775	0.687403	1.3482	1.29763	0	0
10.05	-0.453898	1.43197	-0.996105	0.704569	-0.352966	0.974262	-0.0174809	0.0149342	-0.407649	0.347681	0.154307	0	0	-0.348555	-0.142259	-0.228684	0.209616	-0.103169	0	0	-0.629723	0.0554993	-0.0597817	0.755972	-0.595393	1.13641	0.910189	0.594481	0	0	0.556898	-0.500758	0.687136	1.35134	1.29824	0	0
10.06	-0.452751	1.43045	-0.994801	0.703907	-0.357133	0.97473	-0.0164912	0.0170209	-0.409126	0.339534	0.14839	0	0	-0.354081	-0.145997	-0.219593	0.208017	-0.111076	0	0	-0.628382	0.0584819	-0.0605353	0.743333	-0.597155	1.13117	0.918838	0.597613	0	0	0.546274	-0.504932	0.687253	1.35477	1.29826	0	0
10.07	-0.451035	1.42894	-0.994372	0.703273	-0.361327	0.97526	-0.0154712	0.0187232	-0.411489	0.331394	0.140944	0	0	-0.358219	-0.149256	-0.21658	0.208789	-0.119027	0	0	-0.627262	0.0615282	-0.0613101	0.730584	-0.598542	1.12573	0.925709	0.60524	0	0	0.535972	-0.509965	0.688631	1.35862	1.29442	0	0
10.08	-0.453736	1.42791	-0.989274	0.702698	-0.365524	0.975755	-0.0134369	0.0203552	-0.415118	0.323617	0.132982	0	0	-0.360882	-0.152843	-0.214565	0.210634	-0.126717	0	0	-0.625739	0.0653224	-0.0625683	0.718248	-0.59999	1.12284	0.93288	0.607273	0	0	0.525799	-0.516123	0.690598	1.36297	1.29387	0	0
10.09	-0.461393	1.4279	-0.97943	0.70209	-0.369668	0.976155	-0.00952107	0.021657	-0.418129	0.317094	0.124036	0	0	-0.361566	-0.15645	-0.212853	0.213697	-0.133639	0	0	-0.623298	0.0692751	-0.0639588	0.706635	-0.601134	1.12173	0.939862	0.606507	0	0	0.515586	-0.522626	0.692341	1.36683	1.29686	0	0
10.1	-0.474073	1.42872	-0.964899	0.701419	-0.373762	0.976467	-0.00445708	0.0235078	-0.418654	0.31026	0.111736	0	0	-0.360155	-0.160192	-0.212535	0.218462	-0.139912	0	0	-0.620126	0.0732648	-0.0647886	0.694909	-0.602138	1.1192	0.946888	0.611512	0	0	0.506684	-0.52925	0.695985	1.37014	1.29946	0	0
10.11	-0.492067	1.43001	-0.945135	0.7007	-0.377838	0.97671	0.00143939	0.0260607	-0.417472	0.30325	0.0968828	0	0	-0.357495	-0.164472	-0.21291	0.223942	-0.145835	0	0	-0.616597	0.0775886	-0.0648797	0.682355	-0.603445	1.11302	0.954914	0.627384	0	0	0.499536	-0.536045	0.70424	1.37422	1.28526	0	0
10.12	-0.51111	1.43061	-0.924023	0.700011	-0.381907	0.976992	0.00690703	0.0285107	-0.41919	0.296853	0.0837544	0	0	-0.355036	-0.169533	-0.214541	0.22979	-0.151974	0	0	-0.61381	0.0826379	-0.0648266	0.669924	-0.605468	1.10673	0.965665	0.63573	0	0	0.493212	-0.542678	0.712697	1.37786	1.27814	0	0
10.13	-0.527448	1.43047	-0.905571	0.699343	-0.385937	0.977289	0.0118098	0.0305742	-0.421845	0.291728	0.0715093	0	0	-0.353445	-0.174789	-0.216864	0.235402	-0.158127	0	0	-0.612178	0.0878043	-0.064592	0.657271	-0.608631	1.09907	0.978983	0.64426	0	0	0.487466	-0.549323	0.720485	1.38178	1.27352	0	0
10.14	-0.541338	1.43029	-0.889552	0.698622	-0.389903	0.977536	0.0167615	0.0324624	-0.423871	0.286689	0.0606874	0	0	-0.352042	-0.18	-0.219059	0.24094	-0.164117	0	0	-0.611273	0.0926045	-0.0643673	0.644676	-0.613112	1.09152	0.994912	0.643735	0	0	0.480953	-0.555389	0.725442	1.38637	1.27657	0	0
10.15	-0.553959	1.43042	-0.874559	0.697837	-0.393784	0.977744	0.0218533	0.0343545	-0.423795	0.281614	0.0535604	0	0	-0.350318	-0.185162	-0.220246	0.246602	-0.169898	0	0	-0.611062	0.0968055	-0.0632123	0.627783	-0.61833	1.07355	1.01182	0.666464	0	0	0.47613	-0.561427	0.732504	1.392	1.26169	0	0
